<svg width="143" height="101" viewBox="0 0 143 101" fill="none" xmlns="http://www.w3.org/2000/svg">
<path d="M13.5318 48.7136C16.4566 60.8444 22.7997 70.5631 32.5961 77.799C42.9564 85.4251 55.8186 89.2558 71.1476 89.2558C82.2831 89.2558 92.5377 86.8439 101.947 82.02C111.355 77.196 118.932 69.9601 124.676 60.3123C126.79 56.7653 128.552 52.8991 129.926 48.7491H143C141.52 53.573 139.652 58.1486 137.362 62.476C130.843 74.7486 121.821 84.1482 110.298 90.7101C98.775 97.2721 85.7366 100.571 71.1828 100.571C51.8014 100.571 35.8029 95.605 23.1168 85.6734C11.0298 76.1674 3.3477 63.8593 0 48.7846H13.5318V48.7136Z" fill="#FE9901"/>
<path d="M29.859 0H12.5732L29.859 15.7143V0Z" fill="#FE9901"/>
</svg>
